HIERARCHY
ROOT Hips
{
  OFFSET -35.2597 29.1586 114.425
  CHANNELS 6 Xposition Yposition Zposition Zrotation Xrotation Yrotation
  JOINT LeftUpLeg
  {
    OFFSET 8.64259 1.95398 -2.38835
    CHANNELS 3 Zrotation Xrotation Yrotation
    JOINT LeftLeg
    {
      OFFSET 43.7702 0 0
      CHANNELS 3 Zrotation Xrotation Yrotation
      JOINT LeftFoot
      {
        OFFSET 40.6238 0 0
        CHANNELS 3 Zrotation Xrotation Yrotation
        JOINT LeftToeBase
        {
          OFFSET 12.7242 0 0
          CHANNELS 3 Zrotation Xrotation Yrotation
          End Site
          {
            OFFSET 0 0 0
          }
        }
      }
    }
  }
  JOINT RightUpLeg
  {
    OFFSET -8.2249 1.95398 -2.59336
    CHANNELS 3 Zrotation Xrotation Yrotation
    JOINT RightLeg
    {
      OFFSET 43.5653 0 0
      CHANNELS 3 Zrotation Xrotation Yrotation
      JOINT RightFoot
      {
        OFFSET 40.6238 0 0
        CHANNELS 3 Zrotation Xrotation Yrotation
        JOINT RightToeBase
        {
          OFFSET 12.7242 0 0
          CHANNELS 3 Zrotation Xrotation Yrotation
          End Site
          {
            OFFSET 0 0 0
          }
        }
      }
    }
  }
  JOINT Spine
  {
    OFFSET 0.165834 0.87714 6.61349
    CHANNELS 3 Zrotation Xrotation Yrotation
    JOINT Spine1
    {
      OFFSET 7.38963 1.71661e-005 0
      CHANNELS 3 Zrotation Xrotation Yrotation
      JOINT Spine2
      {
        OFFSET 11.9445 1.14441e-005 0
        CHANNELS 3 Zrotation Xrotation Yrotation
        JOINT Spine3
        {
          OFFSET 14.7254 4.19617e-005 0
          CHANNELS 3 Zrotation Xrotation Yrotation
          JOINT Spine4
          {
            OFFSET 10.9679 0 0
            CHANNELS 3 Zrotation Xrotation Yrotation
            JOINT RightShoulder
            {
              OFFSET 2.46616 -1.6653 3.69651
              CHANNELS 3 Zrotation Xrotation Yrotation
              JOINT RightArm
              {
                OFFSET 13.0012 0 0
                CHANNELS 3 Zrotation Xrotation Yrotation
                JOINT RightForeArm
                {
                  OFFSET 28.7848 1.62311e-005 0
                  CHANNELS 3 Zrotation Xrotation Yrotation
                  JOINT RightHand
                  {
                    OFFSET 26.5688 1.62095e-005 0
                    CHANNELS 3 Zrotation Xrotation Yrotation
                    End Site
                    {
                      OFFSET 0 0 0
                    }
                  }
                }
              }
            }
            JOINT LeftShoulder
            {
              OFFSET 2.38034 -1.29275 -3.7523
              CHANNELS 3 Zrotation Xrotation Yrotation
              JOINT LeftArm
              {
                OFFSET 16.3182 6.07031e-005 0
                CHANNELS 3 Zrotation Xrotation Yrotation
                JOINT LeftForeArm
                {
                  OFFSET 27.0901 0 0
                  CHANNELS 3 Zrotation Xrotation Yrotation
                  JOINT LeftHand
                  {
                    OFFSET 24.5451 1.51738e-005 0
                    CHANNELS 3 Zrotation Xrotation Yrotation
                    End Site
                    {
                      OFFSET 0 0 0
                    }
                  }
                }
              }
            }
            JOINT Neck
            {
              OFFSET 5.0226 -0.0266342 0
              CHANNELS 3 Zrotation Xrotation Yrotation
              JOINT Head
              {
                OFFSET 6.69364 2.86102e-005 0
                CHANNELS 3 Zrotation Xrotation Yrotation
                End Site
                {
                  OFFSET 0 0 0
                }
              }
            }
          }
        }
      }
    }
  }
}
MOTION
Frames:	10
Frame Time:	0.0416667
-86.0629 88.169 -79.1923 -113.892 42.6412 -77.1588 -172.542 23.7597 85.6688 -58.8851 16.7364 -0.792107 70.8913 8.9482 7.34623 23.5971 -1.08478 -2.81123 173.57 29.6606 87.4111 -94.6673 -8.16132 -3.38764 67.6388 -6.43342 -7.04446 15.1805 1.5949 10.095 0.0661893 9.83252 -89.4875 7.20618 0.35307 0.994467 -4.46508 0.396508 0.977955 -26.9972 0.0378802 1.0546 -6.98456 0.0378999 1.05459 94.314 -22.6175 -100.241 45.5218 3.86153 25.3837 -34.1158 -32.7583 -50.3349 -30.9845 5.98171 -26.9835 -86.2511 -39.8292 82.6307 -19.7467 -19.7261 17.9421 69.2139 -8.0782 -94.9421 20.4868 -8.96381 -46.3658 1.13717 1.94736 -3.30779 -2.49312 2.4049 0.810918 
-89.4443 88.3837 -82.7531 -111.557 43.5733 -77.7155 -170.38 24.9968 87.2844 -63.1278 19.1161 -1.32562 70.1196 8.59874 9.2027 28.1533 0.851677 -2.49438 172.586 38.2803 90.1282 -87.4903 -4.96946 -2.14824 66.0662 -5.07135 -7.1192 14.849 1.25726 11.1585 -0.172699 9.97663 -89.624 6.92049 -0.183896 0.748783 -4.75067 -0.150756 0.756134 -27.2845 -0.400406 0.658905 -7.27185 -0.400422 0.658892 94.5253 -19.1081 -100.94 42.4129 5.16484 35.987 -38.3475 -26.0762 -60.5249 -34.5292 6.72069 -26.9389 -85.4958 -33.2178 82.6646 -20.1173 -19.8917 8.84118 68.126 -8.49932 -95.2629 22.5303 -9.39691 -44.8276 -0.844688 3.29807 -1.36165 0.542261 3.45847 1.76051 
-92.4437 88.8997 -85.8681 -109.433 41.5205 -78.8654 -168.403 29.0432 88.4744 -68.3883 21.6394 -1.60579 60.008 0.0602217 8.70126 35.3413 6.78762 -9.10274 168.608 42.3926 90.7564 -74.7938 3.01594 0.762725 63.8995 -2.93849 -6.45071 12.7806 2.49684 9.93768 -0.627771 10.2808 -89.7308 6.31486 -1.14011 0.567675 -5.35577 -1.11402 0.617298 -27.8945 -1.25801 0.198747 -7.88181 -1.25802 0.198734 93.5167 -17.5867 -104.033 37.3027 8.03315 46.6352 -35.9924 -16.6621 -68.7067 -38.7874 7.40538 -26.2972 -84.6739 -26.5683 82.8497 -20.3368 -22.7752 -0.784911 67.919 -6.05737 -95.1989 24.8298 -10.053 -44.0016 -3.02226 4.38603 -0.358472 4.51587 4.48565 2.40915 
-95.6781 88.9616 -89.2674 -108.467 37.7803 -79.7271 -166.102 33.7936 89.4695 -75.1189 24.306 -1.77784 50.9889 -7.19971 6.32501 15.0205 0.45814 -12.3048 165.572 42.1339 88.5923 -60.4087 6.77363 4.66933 60.8046 -0.0586525 -3.91854 12.6236 3.32058 8.25666 -1.06376 10.8122 -89.9122 5.25118 -2.08905 0.213059 -6.41812 -2.07765 0.304823 -28.9664 -2.05645 -0.424909 -8.95377 -2.05646 -0.424922 93.1669 -15.8643 -105.683 35.0368 7.90192 52.1136 -31.5704 -8.88546 -76.9097 -47.5899 7.10614 -21.4565 -83.8415 -19.4318 82.9241 -20.2004 -23.1007 -10.8661 63.0903 -0.479881 -89.7379 25.5864 -9.23634 -40.0231 -1.70262 4.63919 -1.16098 4.35707 4.94616 4.95051 
-99.184 88.3179 -93.1771 -106.488 35.5547 -80.9158 -161.202 38.9627 89.6211 -80.4847 16.1094 -2.53012 51.779 -6.89038 7.2061 17.0655 0.668605 -11.013 164.42 40.6677 86.4755 -45.6846 2.17376 7.63031 57.735 1.96013 -1.15813 14.5551 1.69493 10.3645 -1.1963 11.0987 -90.1452 4.67287 -2.44973 -0.254324 -6.99577 -2.45853 -0.146195 -29.5471 -2.25998 -0.979166 -9.53446 -2.25999 -0.979178 93.9569 -14.025 -104.506 35.261 5.787 43.7605 -30.6861 -7.87274 -78.1403 -61.0855 7.27811 -17.5922 -84.2254 -16.5277 81.2391 -19.7466 -22.1561 -22.2221 61.6697 8.96818 -86.5068 26.4219 -7.37208 -32.2153 -2.66514 4.57434 -1.02344 5.65562 4.96579 5.82496 
-102.523 87.1173 -97.4771 -105.039 34.7129 -82.0984 -154.649 43.7625 88.8772 -82.5682 12.2405 -4.12996 58.7498 -1.58557 7.82962 16.1717 -0.8886 -9.03141 164.916 39.0523 85.0886 -36.1566 1.58643 8.00668 57.8435 1.40279 -1.32485 15.4338 1.54923 9.99433 -1.21407 11.2774 -90.1936 4.31392 -2.50437 -0.359968 -7.35464 -2.51779 -0.249341 -29.9061 -2.28034 -1.09636 -9.89347 -2.28035 -1.09636 95.1705 -14.7436 -100.971 35.9319 0.382157 28.7245 -29.8056 -6.99776 -79.244 -65.2346 5.59415 -13.9534 -84.9253 -17.9489 80.0067 -19.5817 -18.5923 -36.8743 62.5522 22.8258 -79.6368 26.6728 -5.24172 -24.0634 -2.04648 4.39985 -0.809669 4.00876 4.65295 4.95911 
-105.841 85.0224 -101.926 -105.026 32.9859 -83.0566 -149.95 47.6917 87.6588 -81.1217 19.1028 -6.03792 59.7392 -0.534801 6.91381 16.8068 -0.901826 -8.5595 165.418 38.4611 82.4192 -36.88 5.76513 7.54309 57.7494 1.7259 -1.35909 15.0944 2.26362 8.52152 -1.23507 11.5967 -90.0469 3.6789 -2.48643 -0.0915677 -7.98966 -2.48803 0.0180178 -30.5424 -2.3439 -0.835024 -10.5297 -2.3439 -0.835029 94.8492 -16.8083 -101.014 34.8258 -0.989181 10.5 -34.5131 -11.4078 -74.7902 -62.3979 4.36842 -12.4466 -85.9286 -19.0963 78.0525 -20.1961 -13.9731 -51.0828 60.6427 39.0975 -71.3332 26.916 -3.29013 -16.5882 -1.41715 3.65272 -3.14934 4.46073 4.28282 5.85595 
-109.148 81.9552 -106.453 -105.3 32.0856 -84.081 -144.323 51.453 85.5188 -77.3266 25.7664 -8.73056 56.9116 -2.57767 5.01234 18.2181 0.0245588 -9.1007 163.728 44.7113 80.2607 -50.9381 1.37517 9.12753 60.7377 1.06691 -4.58302 -0.0761164 8.23854 8.50763 -1.09874 11.8057 -89.9057 3.26274 -2.15744 0.170761 -8.40645 -2.14784 0.265586 -30.9555 -2.10897 -0.485823 -10.9429 -2.10898 -0.485839 94.4334 -17.1219 -101.93 34.995 -2.83237 -11.1642 -36.7889 -21.2055 -63.928 -60.8751 0.38487 -5.7652 -87.0576 -21.5728 76.3687 -21.668 -12.1608 -79.2416 24.0709 68.4314 -26.3292 32.9641 -3.49968 -15.0654 -1.46023 2.73467 -3.49304 5.41776 3.4153 4.99507 
-112.087 78.3037 -110.204 -106.968 32.6718 -84.1494 -139.077 53.6203 83.5491 -72.8608 26.8955 -11.439 59.057 -0.880154 3.42061 15.0699 -2.92964 -6.54924 158.587 51.3276 81.8796 -66.3653 -3.20068 7.0389 63.473 -2.01688 -7.45884 8.83787 4.71727 8.32918 -0.844407 12.1156 -89.7814 2.64464 -1.60086 0.404299 -9.02541 -1.58153 0.474373 -31.5685 -1.64835 -0.0956496 -11.5558 -1.64836 -0.0956587 93.8166 -16.4687 -103.757 36.4199 -2.25458 -50.5365 -13.3741 -44.158 -16.7647 -62.5791 1.18018 -7.10115 -88.2037 -25.1841 75.2018 -23.7088 -6.79253 -83.9594 9.08684 73.6085 -10.1849 29.1458 -1.99973 -11.1283 -0.235734 1.93675 -3.40926 4.99966 2.59472 4.21581 
-114.853 75.0742 -113.374 -109.676 34.6106 -79.6447 -138.77 56.9942 87.0859 -68.9862 25.9141 -12.1099 58.6922 -1.20456 1.41468 19.0491 -3.21855 -2.99477 152.675 53.3275 87.3433 -77.0741 -7.20344 5.57738 64.0466 -3.21155 -9.39402 7.20571 4.57925 9.81917 -0.28697 12.7139 -90.1046 1.44521 -0.612652 -0.221723 -10.2256 -0.621806 -0.194551 -32.7615 -0.517692 -0.395606 -12.7489 -0.517692 -0.395606 92.7681 -13.8529 -107.731 33.4558 0.518162 -61.4806 -4.95419 -45.0294 -4.78266 -51.3114 -0.0329039 -4.89233 -89.6814 -29.5032 73.7527 -24.0585 -5.80497 -85.6305 11.4548 77.2874 -12.5556 22.1151 -1.31702 -10.0382 3.29699 1.50915 -2.69438 4.37492 2.10908 3.72375 
